<?xml version="1.0" standalone="no"?>
<!DOCTYPE svg PUBLIC "-//W3C//DTD SVG 20010904//EN"
 "http://www.w3.org/TR/2001/REC-SVG-20010904/DTD/svg10.dtd">
<svg version="1.0" xmlns="http://www.w3.org/2000/svg"
 width="24.000000pt" height="24.000000pt" viewBox="0 0 24.000000 24.000000"
 preserveAspectRatio="xMidYMid meet">

<g transform="translate(0.000000,24.000000) scale(0.100000,-0.100000)"
fill="#000000" stroke="none">
<path d="M94 193 c-12 -2 -39 -20 -60 -39 l-39 -34 38 -34 c61 -55 112 -55
174 -1 33 29 36 34 24 49 -36 43 -92 67 -137 59z m89 -38 c20 -14 37 -30 37
-35 0 -16 -73 -60 -100 -60 -27 0 -100 44 -100 60 0 16 73 60 100 60 14 0 42
-11 63 -25z"/>
<path d="M90 150 c-11 -11 -20 -24 -20 -30 0 -13 37 -50 50 -50 13 0 50 37 50
50 0 6 -9 19 -20 30 -11 11 -24 20 -30 20 -5 0 -19 -9 -30 -20z m55 -30 c0
-18 -6 -26 -23 -28 -24 -4 -38 18 -28 44 3 9 15 14 28 12 17 -2 23 -10 23 -28z"/>
</g>
</svg>
