<?xml version="1.0" standalone="no"?>
<!DOCTYPE svg PUBLIC "-//W3C//DTD SVG 20010904//EN"
 "http://www.w3.org/TR/2001/REC-SVG-20010904/DTD/svg10.dtd">
<svg version="1.0" xmlns="http://www.w3.org/2000/svg"
 width="24.000000pt" height="24.000000pt" viewBox="0 0 24.000000 24.000000"
 preserveAspectRatio="xMidYMid meet">

<g transform="translate(0.000000,24.000000) scale(0.100000,-0.100000)"
fill="#000000" stroke="none">
<path d="M70 223 c-95 -49 -83 -183 20 -214 53 -16 107 10 134 65 17 36 18 43
5 79 -25 71 -96 102 -159 70z m117 -18 c35 -23 49 -82 29 -128 -34 -83 -150
-85 -190 -3 -17 36 -18 43 -5 80 24 69 101 93 166 51z"/>
<path d="M62 147 c-8 -9 -4 -12 14 -12 27 0 32 10 10 18 -8 3 -19 0 -24 -6z"/>
<path d="M153 153 c-21 -8 -15 -18 11 -18 18 0 22 3 14 13 -6 6 -11 12 -12 11
0 0 -7 -3 -13 -6z"/>
<path d="M77 80 c16 -17 70 -17 86 0 10 10 8 11 -8 5 -25 -10 -45 -10 -70 0
-16 6 -18 5 -8 -5z"/>
</g>
</svg>
