<?xml version="1.0" standalone="no"?>
<!DOCTYPE svg PUBLIC "-//W3C//DTD SVG 20010904//EN"
 "http://www.w3.org/TR/2001/REC-SVG-20010904/DTD/svg10.dtd">
<svg version="1.0" xmlns="http://www.w3.org/2000/svg"
 width="32.000000pt" height="32.000000pt" viewBox="0 0 32.000000 32.000000"
 preserveAspectRatio="xMidYMid meet">

<g transform="translate(0.000000,32.000000) scale(0.100000,-0.100000)"
fill="#000000" stroke="none">
<path d="M106 294 c-25 -26 -26 -31 -26 -145 0 -115 1 -119 25 -135 33 -22 73
-11 86 23 5 14 8 64 7 111 -2 68 -6 87 -20 96 -13 8 -23 8 -35 0 -15 -9 -18
-26 -18 -89 0 -54 4 -80 13 -83 9 -3 12 17 12 77 0 49 4 81 10 81 7 0 10 -35
8 -97 -3 -95 -4 -98 -27 -101 -34 -5 -41 12 -41 113 0 112 12 140 60 140 47 0
60 -28 60 -137 0 -52 4 -88 10 -88 6 0 10 41 10 104 0 98 -1 105 -26 130 -16
15 -38 26 -54 26 -16 0 -38 -11 -54 -26z"/>
</g>
</svg>
