<?xml version="1.0" standalone="no"?>
<!DOCTYPE svg PUBLIC "-//W3C//DTD SVG 20010904//EN"
 "http://www.w3.org/TR/2001/REC-SVG-20010904/DTD/svg10.dtd">
<svg version="1.0" xmlns="http://www.w3.org/2000/svg"
 width="25pt" height="25pt" id='gooo' viewBox="0 0 512.000000 511.000000"
 preserveAspectRatio="xMidYMid meet" >

<g transform="translate(0.000000,511.000000) scale(0.100000,-0.100000)"
fill="#CD5C5C" stroke="none">
<path d="M2385 4764 c-520 -54 -953 -252 -1314 -599 -669 -645 -843 -1650
-430 -2492 28 -56 90 -162 139 -235 346 -521 889 -856 1520 -939 122 -16 398
-16 520 0 631 83 1174 418 1520 939 242 362 360 753 360 1187 0 589 -231 1135
-651 1540 -321 309 -702 501 -1144 576 -116 19 -422 33 -520 23z m519 -353
c574 -118 1041 -479 1291 -996 397 -820 123 -1806 -640 -2308 -871 -572 -2054
-287 -2573 620 -295 515 -317 1151 -57 1688 157 325 407 596 718 779 213 126
436 200 722 240 17 2 122 3 235 1 156 -3 229 -9 304 -24z"/>
<path d="M1866 3530 c-80 -14 -168 -64 -229 -130 -185 -199 -118 -525 131
-637 77 -35 206 -43 283 -18 287 93 380 440 178 660 -92 100 -231 147 -363
125z"/>
<path d="M3076 3530 c-75 -13 -167 -63 -220 -120 -208 -222 -117 -571 173
-665 76 -25 207 -17 281 17 84 38 153 107 197 196 36 72 38 81 38 171 -1 121
-25 187 -97 266 -100 109 -235 158 -372 135z"/>
<path d="M1440 2417 c-32 -16 -70 -73 -70 -105 0 -13 16 -72 35 -129 149 -444
483 -731 928 -797 466 -70 905 97 1169 444 65 85 151 262 183 374 31 108 31
124 2 167 -41 60 -105 76 -165 39 -36 -22 -37 -24 -82 -166 -95 -305 -323
-518 -641 -598 -185 -47 -371 -44 -554 9 -303 88 -500 284 -610 609 -36 105
-46 124 -75 144 -37 24 -82 28 -120 9z"/>
</g>
</svg>
