<?xml version="1.0" standalone="no"?>
<!DOCTYPE svg PUBLIC "-//W3C//DTD SVG 20010904//EN"
 "http://www.w3.org/TR/2001/REC-SVG-20010904/DTD/svg10.dtd">
<svg version="1.0" xmlns="http://www.w3.org/2000/svg"
 width="24.000000pt" height="24.000000pt" viewBox="0 0 24.000000 24.000000"
 preserveAspectRatio="xMidYMid meet">

<g transform="translate(0.000000,24.000000) scale(0.100000,-0.100000)"
fill="#000000" stroke="none">
<path d="M43 220 c-25 -10 -43 -39 -43 -70 0 -26 96 -130 120 -130 24 0 120
104 120 130 0 56 -54 93 -97 65 -21 -14 -26 -14 -45 0 -25 17 -25 17 -55 5z
m59 -27 c17 -15 19 -15 36 0 38 35 85 13 85 -39 0 -18 -16 -42 -52 -78 l-51
-51 -51 51 c-36 36 -51 60 -51 78 0 52 46 74 84 39z"/>
</g>
</svg>
