<?xml version="1.0" standalone="no"?>
<!DOCTYPE svg PUBLIC "-//W3C//DTD SVG 20010904//EN"
 "http://www.w3.org/TR/2001/REC-SVG-20010904/DTD/svg10.dtd">
<svg version="1.0" xmlns="http://www.w3.org/2000/svg"
 width="25pt" height="25pt" viewBox="0 0 32.000000 32.000000"
 preserveAspectRatio="xMidYMid meet">

<g transform="translate(0.000000,32.000000) scale(0.100000,-0.100000)"
fill="#000000" stroke="none">
<path d="M113 216 c-116 -116 -125 -141 -77 -190 48 -48 84 -33 199 83 53 54
76 84 69 91 -6 6 -40 -20 -99 -80 -66 -67 -96 -90 -115 -90 -33 0 -50 17 -50
50 0 34 178 214 206 208 40 -7 27 -40 -47 -114 -41 -41 -77 -74 -81 -74 -18 0
-6 28 27 60 19 18 32 37 28 43 -7 12 -93 -73 -93 -93 0 -21 20 -40 40 -40 24
0 180 163 180 189 0 28 -34 61 -62 61 -15 0 -56 -34 -125 -104z"/>
</g>
</svg>
