<?xml version="1.0" standalone="no"?>
<!DOCTYPE svg PUBLIC "-//W3C//DTD SVG 20010904//EN"
 "http://www.w3.org/TR/2001/REC-SVG-20010904/DTD/svg10.dtd">
<svg version="1.0" xmlns="http://www.w3.org/2000/svg"
 width="24.000000pt" height="24.000000pt" viewBox="0 0 24.000000 24.000000"
 preserveAspectRatio="xMidYMid meet">

<g transform="translate(0.000000,24.000000) scale(0.100000,-0.100000)"
fill="#000000" stroke="none">
<path d="M60 150 c0 -47 -3 -58 -14 -54 -25 10 -26 -13 -1 -36 l25 -23 25 23
c25 23 24 46 -1 36 -11 -4 -14 5 -14 39 0 38 3 45 20 45 11 0 20 7 20 15 0 10
-10 15 -30 15 -30 0 -30 0 -30 -60z"/>
<path d="M141 176 c-21 -23 -15 -46 9 -31 6 4 10 -12 10 -39 0 -39 -3 -46 -20
-46 -11 0 -20 -7 -20 -15 0 -10 10 -15 30 -15 l30 0 0 61 c0 37 4 58 10 54 6
-3 15 -3 21 0 10 7 -26 55 -41 55 -4 0 -17 -11 -29 -24z"/>
</g>
</svg>
